<svg width="48" height="47" viewBox="0 0 48 47" fill="none" xmlns="http://www.w3.org/2000/svg">
<path d="M2.50181 0H43.6643C45.8182 0.157989 46.814 0.958707 46.9889 3.18133C46.4464 16.5099 47.6885 30.3896 46.9889 43.6553C46.889 45.5386 46.3929 46.7648 44.3121 46.9982H3.09785C1.54708 47.0108 0.33715 45.8564 0.25863 44.307C0.25863 41.1706 0.25863 38.0359 0.25863 34.8995C0.10159 29.9946 0.0159311 25.0898 0.00165471 20.1831C-0.0144063 14.2998 0.0730368 8.41831 0.265768 2.53501C0.265768 2.52065 0.269338 2.50449 0.271122 2.47576C0.41924 1.22262 1.49889 0.464991 2.50181 0Z" fill="#00A2FE"/>
<path d="M21.9393 29.4776L19.3535 30.6266C17.8277 27.0198 12.2385 27.8492 11.4747 31.5961C10.4396 36.6733 16.9961 38.8636 19.5926 34.5799C19.7229 34.5691 21.8055 35.7325 21.8768 35.842C22.0285 36.0736 21.3111 37.0108 21.1327 37.2298C17.6867 41.4506 10.793 40.2298 8.96739 35.1149C6.7599 28.9318 12.9648 23.3052 18.8449 26.1598C20.144 26.79 21.6002 28.0503 21.9411 29.4758L21.9393 29.4776Z" fill="#FEFEFE"/>
<path d="M19.3749 13.3124C17.2995 9.25314 11.2177 10.9623 11.3962 15.5422C11.5657 19.8941 17.2905 21.1095 19.4588 17.4255C19.8942 17.4883 21.9679 18.3932 21.9304 18.772C21.8893 19.1939 20.5509 20.6086 20.1655 20.9228C16.9319 23.5458 11.8834 22.8259 9.64909 19.2603C5.5821 12.7702 12.8345 5.24596 19.4659 9.22441C20.0584 9.57989 21.95 11.3142 21.9554 11.9533C21.9589 12.3339 19.614 13.4542 19.3785 13.3142L19.3749 13.3124Z" fill="#FEFEFE"/>
<path d="M31.8007 25.4489C41.4908 24.2011 42.8293 38.6787 33.8512 39.7469C24.1361 40.9013 22.8102 26.6069 31.8007 25.4489Z" fill="#FEFEFE"/>
<path d="M31.799 28.3825C38.6927 27.2173 38.8444 37.7703 31.9364 36.8133C27.5071 36.1993 27.5303 29.1042 31.799 28.3825Z" fill="#00A2FE"/>
<path d="M31.9667 8.15978C42.326 6.95152 42.649 23.5601 31.9221 22.4686C23.7381 21.6355 23.6078 9.13464 31.9667 8.15978Z" fill="#FEFEFE"/>
<path d="M29.7895 12.2495C34.2616 7.81326 40.3255 15.605 35.1985 18.912C30.7318 21.7917 26.2543 15.7576 29.7895 12.2495Z" fill="#00A2FE"/>
</svg>
