<svg width="255" height="47" viewBox="0 0 255 47" fill="none" xmlns="http://www.w3.org/2000/svg">
<g clip-path="url(#clip0_1_1605)">
<path d="M189.207 16.1741L191.813 16.2442L198.558 26.4991V16.1741H200.896V30.8294L198.292 30.7594L191.545 20.5045V30.8294H189.207V16.1741Z" fill="black"/>
<path d="M203.903 16.1741L206.507 16.2442L213.254 26.4991V16.1741H215.592V30.8294L212.986 30.7594L206.241 20.5045V30.8294H203.903V16.1741Z" fill="black"/>
<path d="M177.765 16.2531C189.714 14.1993 189.967 32.4596 178.048 30.7989C170.344 29.7253 170.228 17.5476 177.765 16.2531ZM179.117 18.5745C172.855 19.0592 173.401 28.6266 179.656 28.4668C186.198 28.2998 185.784 18.0592 179.117 18.5745Z" fill="black"/>
<path d="M115.734 16.1741V18.1724H108.72V22.5027H114.731V24.5009H108.72V28.8312H115.734V30.8294H106.383V16.1741H115.734Z" fill="black"/>
<path d="M227.948 16.1741V18.1724H220.935V22.5027H226.947V24.5009H220.935V28.8312H227.948V30.8294H218.597V16.1741H227.948Z" fill="black"/>
<path d="M122.659 16.2531C125.342 15.7917 127.872 16.3465 129.755 18.3375C127.827 21.167 127.117 18.7505 124.822 18.5745C117.996 18.0485 117.813 28.6338 124.553 28.4668C126.933 28.4075 127.836 25.7738 129.757 28.6643C124.301 33.7899 116.041 29.6032 117.102 22.0323C117.454 19.5242 120.129 16.6894 122.663 16.2549L122.659 16.2531Z" fill="black"/>
<path d="M164.407 16.2531C167.089 15.7917 169.62 16.3465 171.503 18.3375C169.575 21.167 168.865 18.7505 166.57 18.5745C159.744 18.0485 159.56 28.6338 166.301 28.4668C168.681 28.4075 169.584 25.7738 171.504 28.6643C166.049 33.7899 157.788 29.6032 158.85 22.0323C159.202 19.5242 161.877 16.6894 164.411 16.2549L164.407 16.2531Z" fill="black"/>
<path d="M234.876 16.2531C237.558 15.7917 240.088 16.3465 241.971 18.3375C240.044 21.167 239.333 18.7505 237.038 18.5745C230.213 18.0485 230.029 28.6338 236.769 28.4668C239.15 28.4075 240.053 25.7738 241.973 28.6643C236.517 33.7899 228.257 29.6032 229.318 22.0323C229.67 19.5242 232.345 16.6894 234.879 16.2549L234.876 16.2531Z" fill="black"/>
<path d="M142.786 16.1741V18.1724H137.775V30.8294H135.437V18.1724H130.428V16.1741H142.786Z" fill="black"/>
<path d="M255 16.1741V18.1724H249.991V30.8294H247.653V18.1724H242.644V16.1741H255Z" fill="black"/>
<path d="M86.0101 16.1741V28.8312H93.0234V30.8294H83.6723V16.1741H86.0101Z" fill="black"/>
<path d="M97.3652 16.1741V28.8312H104.378V30.8294H95.0274V16.1741H97.3652Z" fill="black"/>
<path d="M53.6133 25.5009V21.5045C55.5888 16.1095 62.0578 14.149 66.2979 18.3411C64.3741 21.2352 63.4926 18.5978 61.0941 18.5386C54.4859 18.3752 54.4859 28.632 61.0941 28.4686C63.4747 28.4093 64.3777 25.7756 66.2979 28.6661C62.0649 32.851 55.5924 30.9066 53.6133 25.5027V25.5009Z" fill="black"/>
<path d="M72.5635 16.2531C84.5128 14.1993 84.7662 32.4596 72.8472 30.7989C65.1433 29.7253 65.0273 17.5476 72.5635 16.2531ZM73.9162 18.5745C67.6542 19.0592 68.2002 28.6266 74.4551 28.4668C80.9973 28.2998 80.5832 18.0592 73.9162 18.5745Z" fill="black"/>
<path d="M150.763 28.2226L156.83 28.2011V30.8905H145.147V28.6355L145.393 28.4704C148.314 26.5458 152.941 23.1723 152.941 20.5027C152.941 18.9084 152.138 18.1849 150.02 18.1849C148.867 18.1849 147.613 18.4327 146.647 18.8671L145.516 19.3644V16.4668L145.887 16.3214C147.224 15.763 149.055 15.4937 150.557 15.4937C154.794 15.4937 156.564 17.5224 156.564 20.2118C156.564 23.1293 153.5 26.1311 150.764 28.2208L150.763 28.2226Z" fill="#00A2FE"/>
<path d="M2.5018 0H43.6643C45.8182 0.157989 46.814 0.958707 46.9889 3.18133C46.4464 16.5099 47.6884 30.3896 46.9889 43.6553C46.889 45.5386 46.3929 46.7648 44.3121 46.9982H3.09784C1.54707 47.0108 0.337143 45.8564 0.258623 44.307C0.258623 41.1706 0.258623 38.0359 0.258623 34.8995C0.101582 29.9946 0.0159235 25.0898 0.00164708 20.1831C-0.0144139 14.2998 0.0730292 8.41831 0.265761 2.53501C0.265761 2.52065 0.26933 2.50449 0.271114 2.47576C0.419232 1.22262 1.49889 0.464991 2.5018 0Z" fill="#00A2FE"/>
<path d="M21.9393 29.4776L19.3535 30.6266C17.8277 27.0197 12.2385 27.8492 11.4747 31.596C10.4396 36.6732 16.9961 38.8636 19.5926 34.5799C19.7229 34.5691 21.8054 35.7325 21.8768 35.842C22.0285 36.0736 21.3111 37.0108 21.1327 37.2298C17.6867 41.4506 10.793 40.2298 8.96738 35.1149C6.75989 28.9318 12.9648 23.3052 18.8449 26.1598C20.144 26.7899 21.6002 28.0503 21.9411 29.4758L21.9393 29.4776Z" fill="#FEFEFE"/>
<path d="M19.3749 13.3124C17.2995 9.25314 11.2177 10.9623 11.3962 15.5422C11.5657 19.8941 17.2905 21.1095 19.4588 17.4255C19.8942 17.4883 21.9678 18.3932 21.9304 18.772C21.8893 19.1939 20.5509 20.6086 20.1654 20.9228C16.9318 23.5458 11.8833 22.8259 9.64908 19.2603C5.58208 12.7702 12.8345 5.24596 19.4659 9.22441C20.0584 9.57989 21.95 11.3142 21.9553 11.9533C21.9589 12.3339 19.614 13.4542 19.3785 13.3142L19.3749 13.3124Z" fill="#FEFEFE"/>
<path d="M31.8007 25.4488C41.4908 24.2011 42.8293 38.6786 33.8512 39.7469C24.1361 40.9013 22.8102 26.6068 31.8007 25.4488Z" fill="#FEFEFE"/>
<path d="M31.7989 28.3824C38.6927 27.2172 38.8444 37.7702 31.9364 36.8133C27.5071 36.1993 27.5303 29.1041 31.7989 28.3824Z" fill="#00A2FE"/>
<path d="M31.9667 8.15978C42.326 6.95153 42.649 23.5601 31.9221 22.4686C23.7381 21.6355 23.6078 9.13465 31.9667 8.15978Z" fill="#FEFEFE"/>
<path d="M29.7895 12.2496C34.2616 7.81329 40.3255 15.605 35.1985 18.912C30.7318 21.7917 26.2543 15.7576 29.7895 12.2496Z" fill="#00A2FE"/>
</g>
<defs>
<clipPath id="clip0_1_1605">
<rect width="255" height="47" fill="white"/>
</clipPath>
</defs>
</svg>
